<?xml version="1.0" encoding="utf-8"?>
<!DOCTYPE svg PUBLIC "-//W3C//DTD SVG 1.0//EN" "http://www.w3.org/TR/2001/REC-SVG-20010904/DTD/svg10.dtd">
<svg version="1.0" xmlns="http://www.w3.org/2000/svg" width="2000px" height="2000px" viewBox="0 0 2000 2000" preserveAspectRatio="xMidYMid meet">
 <g fill="#0c1422">
  <path d="M0 1000 l0 -1000 1000 0 1000 0 0 1000 0 1000 -1000 0 -1000 0 0 -1000z m487.89 345.31 c63.67 -22.85 104.88 -91.60 91.41 -152.73 -1.95 -8.20 -7.42 -23.24 -12.30 -33.01 -7.42 -15.04 -11.91 -20.90 -26.76 -35.55 -28.52 -28.32 -57.81 -41.02 -93.95 -40.82 -35.55 0.39 -65.04 13.48 -93.16 41.80 -14.06 14.26 -18.36 20.12 -25.78 35.35 -10.55 22.07 -15.82 45.51 -14.26 63.48 5.66 59.57 46.48 108.01 104.88 124.22 18.95 5.27 50.98 3.91 69.92 -2.73z m1107.03 2.15 c28.71 -8.79 52.15 -24.61 69.92 -46.88 34.77 -43.75 40.43 -93.75 16.02 -141.99 -23.24 -45.51 -70.31 -75.20 -119.34 -75.39 -59.18 0 -113.48 42.97 -129.88 102.93 -16.80 60.94 20.51 131.05 83.01 156.05 25 9.96 57.81 12.11 80.27 5.27z m-209.57 -123.24 c1.17 -32.03 4.88 -47.85 17.58 -72.85 10.35 -21.09 16.99 -30.27 34.38 -48.44 22.66 -23.83 47.46 -39.06 76.17 -46.68 12.11 -3.32 21.09 -4.10 49.02 -4.10 32.62 -0.20 34.96 0 49.80 5.08 55.86 19.53 99.22 66.21 114.45 123.44 2.93 10.94 4.49 24.02 5.08 43.55 l1.17 27.73 66.99 0 c57.62 0 67.19 -0.39 67.19 -2.93 0 -1.56 -1.76 -3.71 -3.91 -4.88 -5.66 -3.13 -5.08 -16.80 2.15 -52.93 5.66 -27.73 6.05 -31.05 3.91 -43.55 -4.49 -26.76 -23.24 -62.70 -44.73 -85.55 -16.02 -17.19 -41.02 -33.79 -64.45 -43.16 -17.19 -6.84 -71.68 -22.46 -117.97 -33.79 l-23.05 -5.47 0 -67.97 0 -67.97 -77.15 0 -77.15 0 -0.39 -71.68 -0.59 -71.88 -68.36 0 -68.36 0 -0.59 66.99 -0.39 66.80 60.35 0 c33.20 0 63.09 0.59 66.41 1.17 l6.05 1.37 0 57.23 0 57.42 -7.03 0 c-3.91 0 -18.16 -2.15 -31.84 -5.08 -23.63 -4.69 -26.37 -5.86 -65.63 -25.98 -112.50 -58.20 -241.02 -112.89 -300.98 -127.93 -63.67 -16.02 -151.17 -21.88 -255.27 -16.99 -228.13 10.74 -375.39 22.66 -392.19 31.64 -2.73 1.37 -3.71 4.10 -3.71 10.35 0 9.96 0 9.96 -33.20 33.59 -55.08 39.06 -119.73 89.65 -136.13 106.64 l-8.20 8.40 44.73 -0.59 44.92 -0.59 0 7.62 c0 11.33 -9.57 23.44 -31.84 40.04 l-9.38 7.03 -29.88 -1.17 -29.88 -1.17 -1.17 9.38 c-0.78 5.08 -1.37 12.70 -1.37 16.99 0 5.08 -3.13 13.48 -9.57 26.56 -11.91 23.63 -15.04 34.38 -17.97 60.16 -2.93 24.22 -0.78 40.23 8.01 57.42 6.84 13.48 23.05 31.64 33.98 38.09 7.03 4.10 48.83 22.46 51.17 22.46 0.39 0 0.78 -7.23 0.78 -16.02 0 -57.03 21.29 -107.62 57.03 -136.13 36.13 -28.91 75.39 -40.23 133.59 -38.87 28.13 0.59 32.23 1.17 43.36 5.86 19.14 8.01 32.81 16.99 49.41 32.42 20.12 18.95 33.01 36.13 44.73 59.96 12.70 25.59 17.58 45.12 18.95 73.83 l1.17 22.85 379.30 0 379.30 0 1.17 -27.73z m376.37 -431.25 l0 -60.55 -60.94 0.39 -61.13 0.59 -0.59 60.16 -0.39 59.96 61.52 0 61.52 0 0 -60.55z m-207.42 -39.45 l0.59 -13.28 -8.79 0 c-4.88 0 -10.94 0.78 -13.67 1.95 -4.69 1.76 -5.08 2.73 -5.08 13.67 l0 11.91 13.28 -0.59 13.09 -0.59 0.59 -13.09z m64.06 -63.09 c0.59 -2.73 0.59 -8.98 -0.20 -13.87 l-1.17 -8.79 -13.09 0.59 -13.09 0.59 -0.59 10.55 c-0.98 15.43 -0.39 15.82 14.06 15.82 12.11 0 12.89 -0.39 14.06 -4.88z m-318.55 -36.52 c0.78 -7.81 0.98 -19.14 0.59 -25 l-0.59 -10.74 -25.78 -0.59 -25.98 -0.59 0 25.59 0 25.39 25.20 0 25.20 0 1.37 -14.06z m500.98 -18.16 l0 -32.23 -30.86 0 c-21.48 0 -31.64 0.78 -33.20 2.34 -1.56 1.56 -2.34 11.52 -2.34 32.23 l0 29.88 33.20 0 33.20 0 0 -32.23z m-142.58 -18.55 l0 -13.67 -9.38 0 c-15.63 0 -19.92 5.47 -16.80 21.29 1.17 6.05 1.37 6.05 13.67 6.05 l12.50 0 0 -13.67z m-423.05 -16.80 c1.56 -4.10 1.56 -33.79 -0.20 -41.80 l-1.17 -6.45 -23.24 1.17 c-12.89 0.59 -24.02 1.56 -24.61 2.34 -1.76 1.56 -3.13 41.21 -1.56 44.92 1.56 4.49 49.02 4.30 50.78 -0.20z m329.30 -73.05 l0 -76.17 -77.15 0 -77.15 0 0 76.17 0 76.17 77.15 0 77.15 0 0 -76.17z m177.34 -49.22 l0.39 -62.11 -60.16 0 c-44.14 0 -60.74 0.59 -62.50 2.34 -1.76 1.76 -2.34 17.97 -2.34 61.13 0 32.42 0.59 59.57 1.37 60.16 0.78 0.78 28.52 1.17 61.91 0.98 l60.74 -0.59 0.59 -61.91z m-384.38 -44.53 l0 -37.11 -33.98 0 c-18.75 0 -35.35 0.59 -37.11 1.17 -2.73 0.98 -3.13 6.25 -3.13 37.11 l0 35.94 37.11 0 37.11 0 0 -37.11z m157.81 -144.92 l0.39 -36.72 -31.84 0 c-18.16 0 -34.77 0.98 -38.28 2.15 l-6.05 2.15 0 34.96 0 34.96 37.70 -0.39 37.50 -0.59 0.59 -36.52z m176.17 -9.38 l0 -37.11 -34.77 0 c-24.41 0 -35.55 0.78 -37.11 2.34 -1.56 1.56 -2.34 12.70 -2.34 37.11 l0 34.77 37.11 0 37.11 0 0 -37.11z"/>
  <path d="M421.88 1311.13 c-2.73 -0.39 -11.33 -3.91 -19.14 -7.62 -33.01 -15.82 -50.98 -46.48 -51.17 -86.72 0 -38.67 18.16 -69.53 50.39 -85.35 l14.84 -7.42 30.47 0 30.47 0 14.84 7.23 c19.53 9.77 35.74 26.76 43.55 45.70 7.23 17.77 9.18 50.39 3.91 68.16 -8.01 28.13 -23.83 47.07 -49.22 59.18 -14.84 7.03 -15.82 7.23 -39.65 7.62 -13.48 0 -26.56 -0.20 -29.30 -0.78z"/>
  <path d="M1528.91 1308.79 c-6.05 -1.95 -14.84 -5.86 -19.53 -8.59 -12.70 -7.42 -28.32 -25 -35.35 -39.84 -5.86 -12.50 -6.25 -14.84 -6.84 -38.67 -0.59 -21.88 -0.20 -27.15 3.32 -37.70 5.27 -15.63 11.91 -26.17 23.83 -37.70 18.55 -17.97 38.28 -24.02 75.78 -22.85 20.70 0.59 23.83 1.17 35.35 6.64 30.86 14.84 48.24 41.21 51.76 78.13 2.73 29.30 -6.25 56.45 -24.80 76.17 -19.53 20.70 -38.87 28.13 -71.48 27.93 -14.65 0 -24.22 -1.17 -32.03 -3.52z"/>
  <path d="M1775.98 1099.22 c-7.42 -5.66 -26.95 -20.90 -43.16 -33.79 l-29.88 -23.44 0.59 -7.81 0.59 -7.81 12.70 -0.59 c7.03 -0.39 22.66 0.20 34.96 1.37 17.58 1.56 24.80 3.32 34.18 7.62 22.85 10.74 38.28 28.91 38.28 45.12 0 8.20 -0.78 9.38 -11.13 19.14 -15.04 13.67 -19.14 13.67 -37.11 0.20z"/>
  <path d="M923.83 1033.20 c-4.88 -4.88 -5.27 -20.51 -0.78 -26.95 2.93 -4.10 3.91 -4.30 42.58 -4.30 46.29 0 46.09 0 46.09 17.97 0 17.19 -0.20 17.19 -45.51 17.19 -35.94 0 -38.67 -0.20 -42.38 -3.91z"/>
  <path d="M552.73 1021.48 c-2.93 -2.93 -3.91 -6.45 -3.91 -14.26 0 -16.99 0.20 -16.99 46.48 -16.99 38.28 0 39.26 0.20 42.19 4.30 4.49 6.45 4.10 22.07 -0.78 26.95 -3.71 3.71 -6.45 3.91 -41.99 3.91 -35.55 0 -38.28 -0.20 -41.99 -3.91z"/>
  <path d="M1312.50 967.58 c-54.88 -3.91 -140.63 -9.38 -327.15 -21.48 -24.61 -1.56 -46.68 -3.71 -48.83 -4.88 -2.34 -1.17 -5.08 -3.71 -6.45 -5.86 -1.37 -2.15 -7.03 -31.84 -12.50 -66.21 -7.81 -47.66 -9.77 -63.67 -8.20 -67.77 l1.76 -5.47 30.27 -0.59 c33.79 -0.59 50 0.98 92.77 9.77 51.37 10.35 112.89 30.08 171.88 55.27 30.08 12.70 116.80 55.66 155.27 76.76 l32.23 17.58 0 8.59 0 8.40 -8.79 0.20 c-4.88 0.20 -37.30 -1.76 -72.27 -4.30z"/>
  <path d="M709.96 936.52 c-56.84 -2.54 -107.81 -5.47 -113.28 -6.64 -27.34 -6.25 -55.47 -18.55 -83.59 -36.13 -18.75 -11.91 -47.07 -34.57 -50.20 -40.23 -2.73 -5.27 -2.34 -21.88 0.78 -25.78 5.08 -6.64 16.80 -9.38 63.87 -14.06 106.25 -10.94 208.40 -18.16 281.25 -19.92 l52.15 -1.37 2.93 4.69 c4.10 6.64 12.50 137.30 9.18 141.41 -3.32 3.91 -33.01 3.52 -163.09 -1.95z"/>
 </g>
 <g fill="#fefefe">
  <path d="M412.11 1353.91 c-39.84 -11.13 -72.46 -37.50 -90.63 -73.63 -19.73 -39.26 -19.73 -84.96 0 -125.78 7.42 -15.23 11.72 -21.09 25.78 -35.35 18.95 -18.95 34.77 -28.71 58.59 -36.72 12.89 -4.30 18.75 -4.88 40.43 -5.08 21.48 -0.20 27.73 0.59 40.04 4.30 25.20 8.01 40.23 17.19 59.77 36.52 14.84 14.65 19.34 20.51 26.76 35.55 12.30 24.80 15.82 41.99 14.45 70.70 -0.78 18.36 -1.95 25.59 -6.64 38.67 -15.04 41.60 -46.48 73.63 -86.91 88.09 -12.30 4.49 -17.77 5.27 -41.60 5.66 -21.68 0.39 -30.08 -0.20 -40.04 -2.93z m72.85 -55.47 c44.14 -21.09 63.48 -70.31 45.31 -115.63 -7.62 -18.95 -24.02 -35.94 -43.55 -45.70 -14.84 -7.23 -15.04 -7.23 -39.45 -7.23 -24.61 0 -24.61 0 -39.45 7.42 -24.41 11.91 -40.43 31.84 -47.46 58.98 -10.35 40.23 9.96 83.01 48.24 101.37 17.77 8.40 19.73 8.79 42.58 8.20 16.99 -0.20 19.92 -0.98 33.79 -7.42z"/>
  <path d="M1530.27 1354.49 c-25.59 -5.66 -45.12 -16.02 -64.84 -34.77 -29.69 -28.13 -44.34 -63.28 -44.14 -104.88 0.20 -62.30 43.36 -117.58 104.49 -134.18 16.99 -4.69 54.69 -4.69 71.88 0.20 48.83 13.28 85.94 50.59 100 100.20 5.86 21.48 6.05 52.34 0 73.44 -13.67 48.05 -49.02 83.98 -96.88 98.83 -15.82 4.88 -51.17 5.47 -70.51 1.17z m57.42 -51.56 c16.41 -5.08 26.76 -11.72 38.87 -24.41 41.99 -44.53 28.52 -116.02 -26.95 -142.58 -10.55 -4.88 -15.63 -6.25 -29.30 -6.64 -38.67 -1.56 -66.60 11.72 -84.57 40.04 -9.96 15.63 -13.48 30.66 -12.70 52.34 0.59 16.99 1.56 21.29 6.84 32.81 7.03 14.84 22.66 32.42 35.35 39.84 20.90 12.30 49.80 15.63 72.46 8.59z"/>
  <path d="M254.49 1247.27 c-32.62 -13.28 -40.63 -17.97 -53.13 -31.64 -20.12 -22.07 -26.95 -43.55 -24.80 -78.52 1.76 -29.88 5.47 -45.12 17.58 -70.70 9.77 -20.51 10.74 -24.02 11.91 -40.04 1.37 -22.07 6.25 -50.39 9.96 -59.38 1.56 -3.91 6.64 -10.94 11.13 -15.43 16.21 -16.80 80.86 -67.58 136.13 -106.64 33.20 -23.63 33.20 -23.63 33.20 -33.59 0 -6.25 0.98 -8.98 3.71 -10.35 16.21 -8.79 143.75 -19.34 369.34 -30.66 133.59 -6.64 218.75 -1.95 289.84 16.02 59.96 15.04 188.48 69.73 300.98 127.93 39.26 20.12 41.99 21.29 65.63 25.98 29.10 6.05 27.15 5.86 27.15 2.15 0 -1.56 0.78 -2.93 1.95 -2.93 1.17 0 2.15 12.70 2.34 31.84 l0.59 31.64 80.47 0.59 80.47 0.39 0.59 -16.99 c0.39 -11.33 1.37 -17.19 3.13 -17.77 1.17 -0.39 2.34 0.59 2.34 1.95 0 1.76 7.42 4.49 23.05 8.20 46.29 11.33 100.78 26.95 117.97 33.79 33.59 13.48 65.23 38.48 82.62 66.02 10.74 16.60 21.88 41.41 25.39 55.86 4.30 18.16 3.71 30.86 -2.93 63.28 -6.84 34.18 -7.03 37.30 -1.95 40.04 2.93 1.56 3.91 4.10 3.91 10.74 l0 8.79 -73.05 0 -72.85 0 -1.17 -27.73 c-0.59 -19.53 -2.15 -32.62 -5.08 -43.55 -15.23 -57.23 -58.59 -104.10 -114.45 -123.24 -14.45 -5.08 -17.77 -5.47 -43.95 -5.27 -21.68 0.20 -31.84 1.17 -43.16 4.10 -28.52 7.62 -53.52 22.85 -76.17 46.68 -17.38 18.16 -24.02 27.34 -34.38 48.44 -12.70 25 -16.41 40.82 -17.58 72.85 l-1.17 27.73 -385.16 0 -385.16 0 -1.17 -22.85 c-1.37 -28.71 -6.25 -48.24 -18.95 -73.83 -11.72 -23.83 -24.61 -41.02 -44.73 -59.96 -16.60 -15.43 -30.27 -24.41 -49.41 -32.42 -10.55 -4.49 -15.82 -5.27 -37.30 -5.86 -51.37 -1.56 -93.16 11.13 -127.93 38.87 -36.33 28.91 -57.03 79.10 -57.03 138.09 0 9.77 -0.59 17.97 -1.37 17.97 -0.98 0 -13.09 -4.69 -27.34 -10.55z m1562.89 -165.43 c1.76 -5.08 -6.45 -18.75 -16.80 -27.93 -14.06 -12.70 -29.30 -18.55 -54.88 -20.90 -25.20 -2.34 -35.74 -1.95 -35.74 1.56 0 1.95 34.18 29.88 71.88 58.79 l13.48 10.16 10.35 -8.98 c5.86 -4.88 11.13 -10.55 11.72 -12.70z m-815.04 -53.91 c4.30 -3.91 4.49 -11.91 0.20 -16.60 -2.73 -3.13 -6.64 -3.52 -36.91 -3.52 -32.62 0 -33.79 0.20 -36.72 4.30 -4.10 5.86 -3.91 10.55 0.78 15.23 3.52 3.52 6.45 3.91 36.52 3.91 27.54 0 33.01 -0.59 36.13 -3.32z m-371.48 -12.30 c4.69 -4.69 4.88 -9.38 0.78 -15.23 -2.93 -4.10 -4.10 -4.30 -36.33 -4.30 -28.32 0 -33.98 0.59 -37.11 3.32 -4.69 4.10 -4.49 11.33 0.39 16.21 3.52 3.52 6.45 3.91 36.13 3.91 29.69 0 32.62 -0.39 36.13 -3.91z m-354.30 -9.18 c16.80 -12.30 32.03 -28.71 32.03 -34.18 0 -1.76 -68.75 -2.15 -75.59 -0.39 -3.32 0.98 -5.47 4.88 -10.35 19.14 -3.13 9.77 -5.86 18.36 -5.86 19.14 0 0.78 10.35 1.76 23.05 2.15 12.50 0.20 23.83 0.78 25 0.98 1.17 0.20 6.45 -2.73 11.72 -6.84z m1111.13 -43.16 c0 -5.08 -132.03 -73.44 -187.50 -97.07 -96.29 -41.02 -191.60 -65.43 -256.25 -65.43 -23.05 0 -25.98 0.39 -27.73 3.52 -2.15 4.30 15.82 119.14 19.73 125.20 1.37 2.15 4.10 4.69 6.45 5.86 2.15 1.17 24.22 3.32 48.83 4.88 184.77 11.91 272.27 17.58 327.15 21.48 34.96 2.54 64.84 4.49 66.41 4.30 1.56 -0.20 2.93 -1.37 2.93 -2.73z m-520.90 -30.08 c3.13 -3.91 -5.47 -126.76 -9.38 -131.45 -2.54 -3.13 -6.25 -3.32 -48.83 -2.15 -98.44 2.93 -312.70 20.90 -329.88 27.73 -8.59 3.32 -12.89 10.16 -11.13 17.19 1.56 6.25 28.13 28.71 51.17 43.16 28.32 17.77 56.45 30.08 83.79 36.33 5.47 1.17 56.45 4.10 113.28 6.64 126.56 5.27 148.24 5.66 150.98 2.54z"/>
 </g>
 <g fill="#f32f30">
  <path d="M1452.34 1008.40 c-0.78 -0.78 -0.78 -38.48 0 -83.59 l1.37 -82.42 -6.45 -1.17 c-3.52 -0.78 -33.40 -1.37 -66.60 -1.37 l-60.35 0 0.39 -72.66 0.59 -72.85 74.22 0 74.22 0 0.59 71.88 0.39 71.68 77.15 0 77.15 0 0.39 68.95 c0.39 37.70 0.39 76.37 0 85.94 l-0.59 16.99 -85.55 0 c-47.07 0 -86.13 -0.59 -86.91 -1.37z"/>
  <path d="M1633.20 793.55 l0.59 -66.02 66.99 -0.59 66.80 -0.39 0 66.41 0 66.41 -67.38 0 -67.38 0 0.39 -65.82z"/>
  <path d="M1521.48 755.86 c0 -17.19 0.20 -17.77 5.08 -19.53 2.73 -1.17 11.52 -1.95 19.53 -1.95 l14.65 0 -0.59 19.14 -0.59 18.95 -18.95 0.59 -19.14 0.59 0 -17.77z"/>
  <path d="M1584.77 698.63 c-0.59 -1.56 -0.78 -10.16 -0.39 -19.14 l0.59 -16.41 18.75 -0.59 18.75 -0.59 1.37 6.25 c1.56 7.81 1.56 25.78 0 29.88 -1.56 4.10 -37.50 4.69 -39.06 0.59z"/>
  <path d="M1242.19 642.58 l0 -31.25 31.84 0.39 31.64 0.59 0.59 16.60 c0.39 9.18 0 23.05 -0.59 30.86 l-1.37 14.06 -31.05 0 -31.05 0 0 -31.25z"/>
  <path d="M1728.52 638.09 c0 -25.20 0.78 -36.52 2.34 -38.09 1.56 -1.56 13.09 -2.34 39.06 -2.34 l36.72 0 0 38.09 0 38.09 -39.06 0 -39.06 0 0 -35.74z"/>
  <path d="M1626.17 630.66 c-0.59 -3.32 -1.17 -10.74 -1.17 -16.60 0 -13.87 3.52 -16.41 23.83 -16.41 l15.23 0 0 19.53 0 19.53 -18.36 0 -18.16 0 -1.37 -6.05z"/>
  <path d="M1178.52 606.64 c-1.56 -4.10 0 -55.27 1.56 -57.03 0.78 -0.78 14.65 -1.76 30.47 -2.34 l29.10 -0.98 1.17 6.45 c1.76 8.01 1.76 49.41 0.20 53.52 -0.98 2.73 -5.66 3.13 -31.25 3.13 -24.41 0 -30.47 -0.59 -31.25 -2.73z"/>
  <path d="M1404.30 527.34 l0 -82.03 83.01 0 83.01 0 0 82.03 0 82.03 -83.01 0 -83.01 0 0 -82.03z"/>
  <path d="M1612.70 545.51 c-0.78 -0.59 -1.37 -30.27 -1.37 -66.02 0 -47.66 0.59 -65.23 2.34 -66.99 1.76 -1.76 19.53 -2.34 68.36 -2.34 l66.02 0 -0.39 67.97 -0.59 67.77 -66.60 0.59 c-36.52 0.20 -66.99 -0.20 -67.77 -0.98z"/>
  <path d="M1277.34 434.77 c0 -36.33 0.39 -41.99 3.13 -42.97 1.76 -0.59 21.09 -1.17 42.97 -1.17 l39.84 0 0 42.97 0 42.97 -42.97 0 -42.97 0 0 -41.80z"/>
  <path d="M1433.59 291.21 l0 -40.82 6.05 -2.15 c3.71 -1.37 21.68 -2.15 44.14 -2.15 l37.70 0 -0.39 42.58 -0.59 42.38 -43.36 0.59 -43.55 0.39 0 -40.82z"/>
  <path d="M1611.33 281.64 c0 -28.91 0.59 -41.21 2.34 -42.97 1.76 -1.76 14.06 -2.34 42.97 -2.34 l40.63 0 0 42.97 0 42.97 -42.97 0 -42.97 0 0 -40.63z"/>
 </g>
</svg>